<?xml version="1.0" encoding="UTF-8" standalone="no"?>
<!-- Svg Vector Icons : http://www.onlinewebfonts.com/icon -->

<svg
   xmlns:dc="http://purl.org/dc/elements/1.1/"
   xmlns:cc="http://creativecommons.org/ns#"
   xmlns:rdf="http://www.w3.org/1999/02/22-rdf-syntax-ns#"
   xmlns:svg="http://www.w3.org/2000/svg"
   xmlns="http://www.w3.org/2000/svg"
   xmlns:sodipodi="http://sodipodi.sourceforge.net/DTD/sodipodi-0.dtd"
   xmlns:inkscape="http://www.inkscape.org/namespaces/inkscape"
   version="1.1"
   x="0px"
   y="0px"
   viewBox="0 0 1000 1000"
   enable-background="new 0 0 1000 1000"
   xml:space="preserve"
   id="svg14"
   sodipodi:docname="86ccedd04dbca7e596181e21de7d6ed4.svg"
   inkscape:version="0.92.3 (2405546, 2018-03-11)"><sodipodi:namedview
   pagecolor="#ffffff"
   bordercolor="#666666"
   borderopacity="1"
   objecttolerance="10"
   gridtolerance="10"
   guidetolerance="10"
   inkscape:pageopacity="0"
   inkscape:pageshadow="2"
   inkscape:window-width="1920"
   inkscape:window-height="1008"
   id="namedview16"
   showgrid="false"
   inkscape:zoom="0.6675088"
   inkscape:cx="569.53181"
   inkscape:cy="422.88205"
   inkscape:window-x="-8"
   inkscape:window-y="0"
   inkscape:window-maximized="1"
   inkscape:current-layer="g10" /><defs
   id="defs18" />
<metadata
   id="metadata2"> Svg Vector Icons : http://www.onlinewebfonts.com/icon <rdf:RDF><cc:Work
     rdf:about=""><dc:format>image/svg+xml</dc:format><dc:type
       rdf:resource="http://purl.org/dc/dcmitype/StillImage" /><dc:title></dc:title></cc:Work></rdf:RDF></metadata>
<g
   id="g12"><g
     id="g10"
     transform="translate(0.000000,512.000000) scale(0.100000,-0.100000)"><g
       id="g4578"><path
         d="M6984.3,1175.6c-118.8-64.2-153.8-268.7-62.3-375.8c142.1-169.4,416.7-74,416.7,146c0,48.7-13.6,112.9-29.2,144.1C7254.9,1197,7097.2,1237.9,6984.3,1175.6z"
         id="path6"
         style="fill:none;stroke:#000000;stroke-opacity:1;stroke-width:10;stroke-miterlimit:4;stroke-dasharray:none" /><path
         d="M5021.4,603.1c0-13.6-13.6-19.5-31.2-11.7c-19.5,7.8-25.3,3.9-15.6-11.7c9.7-15.6,3.9-17.5-17.5-9.7c-19.5,5.8-33.1,3.9-33.1-7.8c0-11.7-7.8-15.6-17.5-7.8c-25.3,13.6-93.5-77.9-109-146c-29.2-134.3,87.6-292.1,214.2-292.1c138.3,0,272.6,93.5,294.1,204.5c13.6,75.9-39,212.3-97.4,251.2C5144.1,612.9,5021.4,634.3,5021.4,603.1z"
         id="path8"
         style="fill:none;stroke:#000000;stroke-opacity:1;stroke-width:10;stroke-miterlimit:4;stroke-dasharray:none" /><path
         d="M3670,4992.3c-1238.5-192.8-2169.2-1071-2360.1-2225.7c-38.9-247.3-29.2-827.6,21.4-1102.2c72.1-401.1,179.2-753.6,311.6-1037.9l85.7-179.2l-48.7-48.7c-25.3-25.3-46.7-56.5-46.7-70.1c0-11.7-31.2-266.8-68.2-564.7c-72.1-570.5-72.1-593.9,7.8-654.3c52.6-38.9,153.8-29.2,204.5,19.5c37,37,48.7,85.7,77.9,334.9c19.5,161.6,40.9,323.2,48.7,360.2l13.6,68.2L2061.6-279c77.9-93.5,157.7-173.3,175.3-179.2s50.6-48.7,72.1-95.4l42.8-85.7l-95.4-60.4C2009-859.3,1847.4-1163,1847.4-1459c1.9-255.1,77.9-444,257-636.8c155.8-165.5,329.1-253.1,566.6-286.2l169.4-21.4v-60.4c0-31.2-17.5-163.6-38.9-292.1c-21.4-128.5-39-274.6-39-325.2c0-52.6-1.9-93.5-5.8-93.5c-3.9,0-70.1,21.4-146,46.7l-140.2,48.7l-17.5-72.1c-77.9-294-333-1374.8-333-1409.8c1.9-52.6,33.1-97.4,91.5-128.5c64.3-35,114.9-29.2,169.4,21.4c42.8,37,66.2,114.9,167.5,529.7c169.4,702.9,146,632.9,218.1,613.4c33.1-9.7,118.8-74,188.9-142.1c157.7-149.9,268.7-233.7,699.1-529.7l334.9-229.8v-111c0-150,48.7-214.2,157.7-214.2c56.5,0,91.5,13.6,124.6,48.7c44.8,42.8,48.7,62.3,48.7,233.7c0,153.8-5.8,190.8-35,220c-19.5,19.5-167.5,126.6-327.1,237.6c-662.1,459.5-817.9,584.2-845.1,683.5c-31.2,103.2-21.4,336.9,19.5,592c21.4,128.5,38.9,278.4,38.9,333c0,99.3,2,101.3,93.5,161.6c148,95.4,206.4,165.5,204.5,249.3c-1.9,52.6-15.6,85.7-54.5,116.8c-83.7,72-120.7,62.3-319.3-81.8c-280.4-204.5-695.2-95.4-856.8,225.9c-107.1,214.2-75.9,473.2,79.8,650.4c122.7,138.2,225.9,190.8,405,200.6c109,5.8,179.2,0,249.2-23.4c85.7-29.2,107.1-29.2,153.8-7.8c111,52.6,132.4,183,42.8,266.8c-54.5,50.6-239.5,99.3-379.7,99.3H2675l-99.3,190.8c-109.1,208.4-103.2,167.5-56.5,506.3l11.7,81.8l185-218.1c227.8-270.7,249.2-288.2,331-288.2c118.8,0,192.8,122.7,136.3,225.9c-52.6,99.3-656.2,796.4-714.6,823.7c-50.6,25.3-64.3,25.3-124.6-3.9c-75.9-35-95.4-89.6-118.8-315.5c-5.8-74-17.5-144.1-21.4-153.8c-5.8-7.8-46.7,44.8-89.6,116.8c-434.2,741.9-617.3,1772-444,2490.5c218.1,901.6,1010.6,1589,2027.1,1754.5c243.4,39,666,39,911.3-3.9c903.5-151.9,1678.5-771.1,2155.6-1721.4c144.1-288.2,327.1-798.4,297.9-829.5c-5.8-3.9-91.5,5.8-192.8,23.4c-387.5,66.2-757.5-33.1-1030.1-278.5l-97.4-87.6l-130.5,29.2c-212.3,48.7-373.9,58.4-551.1,33.1c-356.3-48.7-636.8-185-876.3-426.4c-264.8-268.7-370-508.3-385.6-880.2c-9.7-270.7,17.5-399.2,136.3-640.6c66.2-134.4,112.9-198.6,257-342.7c149.9-148,206.4-188.9,362.2-266.8c305.7-148,588.1-196.7,897.7-151.9c504.3,74,917.2,375.8,1127.5,823.7c56.5,120.7,62.3,126.6,151.9,148c188.9,42.8,445.9,66.2,621.2,58.4c148-7.8,200.6-19.5,292.1-66.2c149.9-75.9,190.8-146,190.8-329.1c-1.9-218.1-81.8-334.9-286.2-412.8c-68.1-25.3-169.4-33.1-531.6-35c-484.9-3.9-658.2-23.4-1061.3-126.6c-508.2-128.5-998.9-333-1518.9-630.9c-243.4-140.2-340.8-225.9-486.8-420.6c-473.2-638.7-492.7-1318.3-50.6-1851.8c183-222,447.9-420.6,812-607.5c352.5-183.1,644.5-247.3,1129.4-247.3h309.6v-44.8c0-93.5,134.4-159.7,243.4-118.8c38.9,15.6,87.6,109.1,87.6,167.5c0,40.9,17.5,48.7,179.2,87.6c111,27.2,218.1,68.2,284.3,109l107.1,66.2l360.3-222c414.8-257,432.3-264.8,504.3-237.6c70.1,27.3,101.3,74,103.2,155.8c0,89.6-13.6,101.3-430.3,358.3L7245.2-4045l9.7,151.9c13.6,173.3-19.5,292.1-101.3,368c-27.3,25.3-48.7,60.4-48.7,79.8c0,27.3,138.2,644.6,167.5,740c7.8,25.3,52.6,33.1,243.4,44.8c891.9,50.6,1285.2,346.6,1182,889.9c-27.2,138.3-42.8,165.5-342.7,609.5l-315.5,463.5l48.7,101.2c93.5,190.8,97.4,492.7,9.7,679.6c-42.8,91.5-114.9,177.2-204.5,239.5l-56.5,42.8l60.4,112.9c33.1,64.3,74,161.6,91.5,220c35,120.7,40.9,358.3,9.7,488.8c-50.6,223.9-235.6,490.7-447.9,650.4c-109.1,81.8-120.7,97.4-126.6,173.3c-9.7,130.5-136.3,547.2-249.3,815.9c-498.5,1195.6-1454.6,1999.8-2568.4,2165.4C4359.4,5029.2,3909.5,5029.2,3670,4992.3z M7005.7,1765.6c282.4-99.3,519.9-299.9,630.9-537.4c99.3-212.3,76-455.7-68.2-666l-60.4-89.6l-187,7.8c-114.9,5.8-264.8-1.9-389.4-21.4c-112.9-17.5-210.3-31.2-220.1-31.2c-7.8,0-15.6,35-15.6,77.9c0,132.4-58.4,371.9-124.6,516c-105.2,223.9-274.6,422.6-475.1,556.9l-46.7,33.1l66.2,48.7c81.8,64.3,223.9,126.6,333,149.9C6587,1839.6,6851.9,1818.2,7005.7,1765.6z M5484.9,1487.2c414.8-83.7,749.7-387.5,851-769.2c33.1-122.7,37-340.8,7.8-465.4c-58.4-259-288.2-547.2-537.4-677.6C5481-596.4,5058.4-608.1,4741-458.1C4308.7-253.7,4059.5,178.6,4123.7,607C4217.2,1216.5,4838.4,1619.6,5484.9,1487.2z M8084.5-1346.1c260.9-387.5,290.2-438.1,299.9-531.6c17.5-165.5-64.2-272.6-266.8-350.5c-296-114.9-1133.3-157.7-2116.7-105.1c-718.5,39-831.5,35-963.9-27.3c-317.4-148-477.1-459.5-397.2-771.1c87.6-346.6,282.4-539.4,640.6-640.7c56.5-15.6,216.1-33.1,354.4-38.9c270.7-11.7,494.6,9.7,759.5,74c208.4,48.7,438.1,50.6,498.5,0c35-29.2,44.8-54.5,42.8-118.8c-7.8-171.3-175.3-292.1-463.4-333c-85.7-11.7-159.7-23.4-165.5-27.3c-7.8-3.9-120.8-17.5-251.2-29.2c-434.3-37-814,25.3-1148.9,185c-1035.9,500.4-1275.5,1220.9-667.9,2027.1c103.2,136.3,140.2,167.5,317.4,274.6c843.1,498.5,1764.2,773.1,2475,738c272.6-13.6,496.6,9.7,636.8,66.2c48.7,19.5,99.3,35,109,37C7788.5-917.7,7926.8-1110.4,8084.5-1346.1z M5278.5-2983.7c-46.7-196.7-95.4-364.1-103.2-373.9c-29.2-33.1-151.9,105.2-192.8,216.2c-48.7,132.4-48.7,220,0,317.4c48.7,95.4,208.4,194.7,313.5,194.7h72L5278.5-2983.7z M6183.9-2676.1c1.9-1.9-40.9-185-93.5-407l-99.3-403.1H5738c-229.8,0-251.2,2-241.5,35c5.9,17.5,50.6,194.7,99.3,393.4c48.7,198.6,93.5,371.9,97.4,385.5c7.8,19.5,62.3,21.4,247.3,11.7C6072.9-2668.3,6182-2674.1,6183.9-2676.1z M6927.8-2720.8c0-19.5-33.1-171.4-74-336.9l-72.1-301.8l-163.6-11.7c-91.5-7.8-190.8-19.5-222-27.3c-48.7-13.6-52.6-9.7-42.9,21.4c7.8,29.2,103.2,412.8,157.7,646.5c9.7,40.9,19.5,42.9,214.2,42.9C6908.3-2687.7,6929.8-2691.6,6927.8-2720.8z"
         id="path4"
         style="fill:none;stroke:#000000;stroke-opacity:1;stroke-width:10;stroke-miterlimit:4;stroke-dasharray:none" /></g></g></g>
</svg>