<?xml version="1.0" encoding="UTF-8" standalone="no"?>
<!-- Created with Inkscape (http://www.inkscape.org/) -->

<svg
   xmlns:dc="http://purl.org/dc/elements/1.1/"
   xmlns:cc="http://creativecommons.org/ns#"
   xmlns:rdf="http://www.w3.org/1999/02/22-rdf-syntax-ns#"
   xmlns:svg="http://www.w3.org/2000/svg"
   xmlns="http://www.w3.org/2000/svg"
   xmlns:sodipodi="http://sodipodi.sourceforge.net/DTD/sodipodi-0.dtd"
   xmlns:inkscape="http://www.inkscape.org/namespaces/inkscape"
   width="210mm"
   height="297mm"
   viewBox="0 0 210 297"
   version="1.1"
   id="svg8"
   inkscape:version="0.92.3 (2405546, 2018-03-11)"
   sodipodi:docname="homer2.svg">
  <sodipodi:namedview
     id="base"
     pagecolor="#ffffff"
     bordercolor="#666666"
     borderopacity="1.0"
     inkscape:pageopacity="0.0"
     inkscape:pageshadow="2"
     inkscape:zoom="1.979899"
     inkscape:cx="182.32656"
     inkscape:cy="787.11348"
     inkscape:document-units="mm"
     inkscape:current-layer="layer1"
     showgrid="false"
     inkscape:window-width="1920"
     inkscape:window-height="1017"
     inkscape:window-x="-8"
     inkscape:window-y="-8"
     inkscape:window-maximized="1" />
  <defs
     id="defs2" />
  <metadata
     id="metadata5">
    <rdf:RDF>
      <cc:Work
         rdf:about="">
        <dc:format>image/svg+xml</dc:format>
        <dc:type
           rdf:resource="http://purl.org/dc/dcmitype/StillImage" />
        <dc:title></dc:title>
      </cc:Work>
    </rdf:RDF>
  </metadata>
  <g
     id="layer1"
     inkscape:groupmode="layer"
     inkscape:label="Vrstva 1">
    <path
       id="path917"
       transform="translate(18.9177,26.8604) scale(0.264583,0.264583)"
       style="stroke-width:1.71993936448;stroke:#000000;stroke-linecap:round;fill:none"
       d="M86 17L66.1972 19.7262L57.9116 15.8298L46 11C54.3047 1.9946 67.1733 -0.684357 77.9845 5.8045C82.3658 8.43414 85.1466 13.3441 89.6054 15.637C92.7334 17.2455 96.5976 16.9793 100 17.4131C105.416 18.1036 110.892 19.4064 116 21.339C134.44 28.3148 144.973 45.4816 151.876 62.9992C155.867 73.1287 167.994 80.7291 162 92C151.975 86.1423 139.157 84.8883 129.018 91.438C124.314 94.4769 120.712 98.8796 117 103C119.837 106.69 122.436 110.354 123.402 115.001C129.683 145.231 91.0132 165.874 69.4059 143.649C53.615 127.407 62.5318 102.377 83 95.3124C95.3702 91.0427 107.237 95.0275 117 103M41 15L36.9134 35.8027L25 50C19.4486 39.2283 22.3786 25.3116 32.1137 17.7697C35.8816 14.8506 40.6475 13.7553 45 12M63 21L40 34M37 38L41 45M25 50C21.0709 58.1534 16.4184 65.819 15.3375 75C13.4212 91.2782 19.7141 107.652 26.7619 122C31.4223 131.487 37.5858 141.394 39 152L31 147L34 168M24 53L29 59M163 92C171.337 100.636 177.016 110.765 172.449 122.995C171.227 126.267 169.084 130.611 165.637 132.017C160.973 133.92 155.737 128.855 151 128.525C142.284 127.917 133.764 132.042 125 132M156 112L156 113M89 126L90 126M168 132C172.49 139.407 173.319 144.844 168 152C173.244 157.568 179.116 162.607 183.403 169C186.754 173.998 188.505 179.555 191.199 184.864C193.441 189.283 197.695 193.62 195.187 198.871C191.616 206.347 182.259 206.725 176.328 211.243C172.79 213.938 171.784 218.099 169.552 221.729C163.42 231.704 156.496 237.752 161 250C163.06 249.817 165.005 249.646 167.066 249.974C178.422 251.781 174.64 261.576 171 269C174.699 272.344 177.607 276.148 180.997 279.764C182.366 281.224 184.299 283.288 186.534 283.007C190.111 282.558 189.123 277.248 188.515 274.992C186.653 268.079 182.528 260.571 177 256M64 251C63.8534 257.606 58.9887 256.257 55 253C57.9944 251.737 62.2227 250.712 63.691 247.477C65.1911 244.17 64.1575 239.489 63.895 236C63.1784 226.476 62.888 210.429 56.6277 202.705C51.7357 196.669 43.8466 196.876 41.7221 187.988C39.9091 180.404 45.006 175.947 45.8998 169C46.2864 165.995 45.1972 163.006 45.1812 160C45.1388 152.006 45.4113 142.832 47 135L62 152M163 135C163.968 141.079 163.162 147.584 168 152M156 242C138.2 257.767 110.366 256.583 91.0001 243.634C73.0596 231.639 63.7051 208.065 73.512 188C87.1104 160.177 117.546 163.797 143 158.671C150.2 157.221 156.477 154.254 163 151M40 153L44 158M49 170L58 171M52 188C51.631 184.796 51.45 182.932 55 183M57 201L60 199M83 209C89.039 215.341 99.6602 216.202 108 216.798C119.933 217.651 132.135 217.119 144 215.779C153.394 214.718 162.555 212.537 172 214M82 212L82 214M161 250C163.584 261.757 171.602 269.418 168.319 281.998C167.583 284.819 166.731 288.949 164.082 290.655C161.308 292.44 158.152 290.038 155.993 288.363C150.439 284.052 145.584 278.901 140 274.602C127.691 265.125 115.866 265.171 101 263.742C88.9507 262.583 76.72 261.082 65 258M123 267L112 297C106.868 294.88 101.625 293.332 96 293.766C92.0051 294.074 88.0326 295.906 84 295.427C76.8078 294.574 70.2577 289.289 63 287.808C58.4625 286.882 47.7538 288.084 45.2744 283.266C42.8151 278.487 46.6113 269.596 48.328 265.007C49.7226 261.279 51.5182 258.094 54 255M189 270C204.086 275.099 221.121 280.784 233.796 290.688C240.255 295.735 244.067 302.761 250.087 308.161C266.976 323.311 283.109 339.499 286.449 363C287.398 369.68 286.96 376.426 285.526 383C284.146 389.323 282.153 395.566 278.539 400.995C273.104 409.156 265.196 413.467 256 416.193C232.279 423.227 206.914 414.018 189 398C179.952 408.879 171.411 420.093 159 427.4C130.093 444.42 90.3942 433.001 66 413.212C56.7591 405.716 50.8946 396.541 43 388L40 401C31.9992 395.82 26.4798 388.163 21.748 380C9.22487 358.395 -1.12377 325.719 14.6267 303.035C22.2036 292.122 33.0047 290.544 44 285M186 287C189.193 293.325 193.684 308.743 201.12 310.757C206.726 312.275 211.753 306.605 216 303.835C223.041 299.244 229.966 297.763 238 296M83 297C81.5021 299.911 79.5553 302.845 78.65 306.011C76.4144 313.832 83.6584 319.091 90.9017 318.734C97.7415 318.397 101.747 310.865 107.001 307.328C109.177 305.863 112.724 304.717 113.914 302.185C114.781 300.341 113.714 298.66 113 297M238 298L242 302M116 302C119.985 303.89 124.332 305.313 127.895 307.971C131.285 310.502 133.525 314.068 136.582 316.929C139.372 319.541 142.967 321.501 144.528 325.178C147.936 333.207 133.924 342.31 127.967 345.463C125.852 346.583 123.455 347.428 121.025 347.153C112.908 346.235 111.31 337.226 114.137 331.005C117.826 322.886 124.712 319.063 133 317M148 330C162.407 318.552 174.479 307.265 194 309M205 313C211.462 318.377 225.202 326.643 225.743 336C226.114 342.414 217.994 349.076 214.636 354C205.242 367.771 197.998 382.964 189 397M95 320C93.6578 331.338 100.088 336.761 111 337M43 388C44.349 369.115 58.4906 350.554 72.0045 338.234C78.0993 332.678 84.8066 327.66 93 326M229 337L234 335M51 400L41 402" />
  </g>
</svg>
