<?xml version="1.0" encoding="UTF-8" standalone="no"?>
<!-- Generator: Adobe Illustrator 15.0.0, SVG Export Plug-In . SVG Version: 6.00 Build 0)  -->

<svg
   xmlns:dc="http://purl.org/dc/elements/1.1/"
   xmlns:cc="http://creativecommons.org/ns#"
   xmlns:rdf="http://www.w3.org/1999/02/22-rdf-syntax-ns#"
   xmlns:svg="http://www.w3.org/2000/svg"
   xmlns="http://www.w3.org/2000/svg"
   xmlns:sodipodi="http://sodipodi.sourceforge.net/DTD/sodipodi-0.dtd"
   xmlns:inkscape="http://www.inkscape.org/namespaces/inkscape"
   version="1.0"
   id="Layer_1"
   x="0px"
   y="0px"
   width="800px"
   height="355px"
   viewBox="0 0 800 355"
   enable-background="new 0 0 800 355"
   xml:space="preserve"
   sodipodi:docname="Logo_The_Simpsons.svg"
   inkscape:version="0.92.3 (2405546, 2018-03-11)"><metadata
   id="metadata63"><rdf:RDF><cc:Work
       rdf:about=""><dc:format>image/svg+xml</dc:format><dc:type
         rdf:resource="http://purl.org/dc/dcmitype/StillImage" /></cc:Work></rdf:RDF></metadata><defs
   id="defs61" /><sodipodi:namedview
   pagecolor="#ffffff"
   bordercolor="#666666"
   borderopacity="1"
   objecttolerance="10"
   gridtolerance="10"
   guidetolerance="10"
   inkscape:pageopacity="0"
   inkscape:pageshadow="2"
   inkscape:window-width="1920"
   inkscape:window-height="1017"
   id="namedview59"
   showgrid="false"
   inkscape:zoom="0.63993164"
   inkscape:cx="52.329611"
   inkscape:cy="175.35185"
   inkscape:window-x="-8"
   inkscape:window-y="0"
   inkscape:window-maximized="0"
   inkscape:current-layer="Layer_1" />

<g
   id="g56"
   style="fill:none;stroke:#000000;stroke-opacity:1">
	<g
   id="g26"
   style="fill:none;stroke:#000000;stroke-opacity:1">
		<path
   fill="#ED3133"
   d="M455.97,9.48c5.96-4.82,14.35-7.06,21.78-4.78c4.05,2.29,6.81,6.59,11.54,7.76    c1.24,6.15,5.17,11.63,4.92,18.08c-0.01,5.35-0.57,10.69-1.05,16.02c-0.03,2.92-2.67,4.7-4.26,6.84    c-7.37,8.66-15.22,18.25-26.71,21.28c-4.29,1.36-8.78,0.44-13.15,0.59c-3.26,1.9-2.25,6.2-1.57,9.23    c0.75,4.58,5.48,6.79,9.49,7.87c4.62,1,9.14,3.42,13.97,2.52c9.64-1.29,16.68-8.95,25.82-11.62c2.25-0.62,4.61-0.69,6.87-1.3    c3.94-2.76,5.54-8.27,10.38-9.83c3.07,0.71,5.6,2.7,8.28,4.25c-0.8,7.77-6.95,13.35-13.3,17.11c-5.52,3.46-11.36,6.47-16.36,10.7    c-1.83,1.69-4.39,1.92-6.68,2.55c-6.23,1.51-12.47,3.81-18.98,3.29c-3.04-0.22-5.85-1.86-8.95-1.59c-3.19,0.17-6.52-0.03-9.34-1.7    c-6.09-3.39-9.5-9.76-14.4-14.48c-1.28-1.42-3.05-2.61-3.44-4.6c-1.45-5.59-1.1-11.47-2.35-17.09c-1.09-2.99-3.13-5.77-2.9-9.11    c0.24-7.66,5.52-13.76,7.75-20.84c1.06-4.07,4.1-7.09,6.27-10.57C444.49,22.8,449.04,15.02,455.97,9.48z M461.34,24.81    c-3.24,2.95-6.83,6.11-7.83,10.58c-1.72,6.6-6.87,12.08-7.04,19.11c-0.31,3.82,4.28,5.7,7.48,5.38c5.36-0.92,9.81-4.6,15.26-5.29    c2.72-6.57,8.02-11.66,10.69-18.23c2.27-5.51-0.37-12.46-5.61-15.2C469.72,19.15,464.82,21.89,461.34,24.81z"
   id="path24"
   style="fill:none;stroke:#000000;stroke-opacity:1" />
	</g>
	<path
   fill="#ED3133"
   d="M389.54,16.15c3.79-3.87,12.06-2.37,13,3.36c1.93,11.23-0.44,22.6,0.13,33.89   c0.29,5.51,1.41,11.17,4.49,15.84c1.31,2.13,3.33,4.55,2.01,7.18c-1.69,3.65-4.58,6.76-5.34,10.82c-2.01,8.87,3.28,17.3,2.56,26.15   c-2.15,4.09-7.58,3.69-11.43,2.98c-3.77-2.76-1.42-8.15-2.97-11.96c-2.08-4.72-0.85-9.91-1.57-14.84c-0.5-3.79-5.2-5.7-8.42-3.98   c-3.7,1.68-7.83,0.74-11.72,1.34c-2.56,2.07-3.95,5.34-4.36,8.56c-0.78,6.75,1.95,13.42,0.86,20.16c-0.38,2.81-1.98,5.22-3.42,7.59   c-3.31,0.22-6.95-1.54-8.04-4.76c-0.19-9.14-1.77-18.22-4.25-26.99c-2.34-2.99-7.31-3.3-8.7-7.12c0.06-3.64,1.94-7.47,5.12-9.42   c2.37-1.86,5.81-3.21,6.55-6.44c2.8-13.56,0.5-27.39,0.56-41.07c-0.14-3.91,4.63-4.88,7.69-4.95c0.73,7.92,6.52,16.1,1.88,23.83   c3.27,6.27,1.14,13.43,2.46,20.07c0.6,3.5,4.25,5.31,7.47,5.68c5.95,0.48,12.65-0.08,17.04-4.62c-3.93-15.39-0.89-31.36-2.25-46.99   C389.02,19.07,388.19,17.14,389.54,16.15z"
   id="path28"
   style="fill:none;stroke:#000000;stroke-opacity:1" />
	<path
   fill="#ED3133"
   d="M297.41,34.91c1.43-1.14,3.23-1.17,4.97-1.03c0.03,4.53,2.44,9.02,0.79,13.5c0.26,1.42,0.48,2.86,0.66,4.3   c4.47,3.18,10.32,2.99,15.29,1.17c5.65-1.91,11.1-4.49,17-5.62c2.98,3.18,3.28,7.99,1.78,11.92c-7.29,8.8-18.8,13.04-29.93,14.01   c-3.31,0.07-5.68,3.23-6,6.3c-0.45,3.74,1.06,7.3,1.52,10.96c1.24,9.33-0.09,18.73-0.25,28.08c-0.14,1.96,0.16,4.29-1.46,5.75   c-2.15,1.95-4.96,2.92-7.5,4.25c-3.23-2.29-5.67-5.89-5.48-9.99c1.6-12.24,1.02-24.67-0.28-36.91c-0.17-3.07-3.32-4.73-5.82-5.79   c-7.4-2.49-15.42,0.06-22.88-2.11c-3.64-1.26-7.79,0.23-11.17-1.94c-2.57-1.57-5.47-3.39-6.67-6.26c-0.01-2.5,1.46-4.7,2.24-7.01   c4.94-3.63,11.09-1.74,16.71-1.94c6.41,0.07,12.82,1.97,19.22,0.77c3.55-0.64,6.83-2.97,8.38-6.26c0.9-3.97-1.49-8.53,0.94-12.11   C292,37.39,294.95,36.62,297.41,34.91z"
   id="path30"
   style="fill:none;stroke:#000000;stroke-opacity:1" />
	<path
   fill="#ED3133"
   d="M92.88,102.32c15.87-6.86,32.85-11.43,50.17-12.18c4.38-0.14,8.9-0.59,13.09,0.98   c5.97,2.14,12.95,0.98,18.26,4.94c8.46,5.1,19.96,8.18,23.62,18.43c1.16,5.55,1.28,11.34,1.12,17c0.07,5.53-7.44,9.04-11.54,5.47   c-2.18-3.7-0.41-8.57-2.73-12.24c-2.06-2.96-6.13-2.6-9.06-4.11c-15.29-6.91-32.76-6.32-48.87-3.02   c-12.87,2.56-25.29,6.87-37.71,11c-2.9,0.86-4.64,3.54-7.2,4.99c-6.59,3.71-14.75,3.5-21.07,7.82c-2.47,1.62-4.06,4.16-5.53,6.65   c-5.06,1.22-9.59,4.52-11.62,9.41c-2.12,5.08-3.75,10.58-3.89,16.09c1.74,7.13,2.11,15.82,8.48,20.6c2.76,1.82,3.09,5.46,5.16,7.87   c5.85,7.45,14.2,12.35,20.41,19.47c6.95,4.59,14.16,8.86,21.8,12.23c27.26,16.28,56.84,28.65,82.63,47.37   c2.01,1.3,2.76,3.84,4.88,5.02c0.82,0.76,2.17,1.17,2.46,2.38c3.59,13.37-2.52,28.26-13.93,35.87c-8.73,4.66-19.91,2.55-27.77,9.21   c-6.12,3.25-13.43,0.95-20.04,1.28c-5.15-0.46-9.86,2.72-15.02,1.83c-7.35-0.65-14.53-2.42-21.83-3.42   c-4.97-0.71-10.05-0.36-14.97-1.41c-12.82-2.44-26.35-3.98-37.68-10.94c-4.16-3.84-2.47-10.17-2.12-15.13   c6.06-4.3,14.07-4.43,21.08-2.91c10.79,3.3,22.29,6.12,33.57,3.79c13.97-2.34,28.16,2.12,42.1-0.64c3.01-0.53,5.74-2,8.72-2.66   c3.38-0.09,6.7,0.77,10.06,1c6.78,0.06,13.47-1.44,19.63-4.29c2.34-2.03-0.2-4.85-1.64-6.57c-1.51-2.12-4.28-2.38-6.42-3.55   c-6.25-3.21-9.04-10.44-15.12-13.87c-2.87-1.7-6.31-1.34-9.47-0.99c-17.41-12.13-37.66-19.12-55.92-29.73   c-4.65-2.52-6.74-7.87-11.22-10.58c-2.01-1.3-4.49-1.07-6.77-1.07c-5.13-2.76-8.59-7.57-12.88-11.37   c-2.48-2.29-5.89-3.26-8.21-5.75c-3.77-3.99-10.92-5.23-11.46-11.65c-4.65-4.71-5.2-11.66-8.9-16.94   c-2.84-3.86-3.19-8.97-2.41-13.55c1.24-6.87,4.86-13.06,5.93-19.98c0.34-1.51,0.39-3.19,1.44-4.43   c4.34-5.66,11.03-8.96,15.35-14.64c1.65-2.05,2.3-4.97,4.73-6.32C60.16,119.29,75.9,109.55,92.88,102.32z"
   id="path32"
   style="fill:none;stroke:#000000;stroke-opacity:1" />
	<path
   fill="#ED3133"
   d="M731.74,159.33c3.44-1.29,5.39-5.25,9.35-5.35c5.78-1.15,11.05,2.05,16.74,2.05   c4.42,0.89,9.53,2.84,11.12,7.52c1.96,5.8,0.06,11.98,0.62,17.94c-0.1,1.89,1.06,4.39-0.87,5.72c-3.23,2.71-7.75,1.82-11.54,1.21   c-1.84-5.54,1.29-13.29-5.09-16.54c-7.01,0.99-14.14,2.52-20.17,6.39c-3.7,2.24-6.58,5.51-9.43,8.7   c-5.36,5.64-3.43,14.36-7.68,20.62c7.1,11.97,19.84,18.55,30.8,26.42c3.07,1.85,3.48,5.73,5.33,8.54c2.59,4.49,5.7,9.93,3.19,15.16   c-6.46,14.96-21.25,23.29-34.39,31.59c-3.09,2.35-7.2,1.33-10.66,2.64c-5.99,1.65-12.62,5.37-18.74,2.2   c-4.77-1.91-6.32-10.09-1.33-12.62c4.8-2.6,10.69-2.47,15.19-5.73c2.9-2.17,6.57-2.64,9.89-3.88c6.69-2.36,13.4-5.87,17.53-11.85   c2.23-2.81,1.36-6.9-0.63-9.59c-2.81-3.72-6.95-6.17-11.2-7.91c-5.36-2.3-8.04-7.87-12.34-11.49c-2.07-1.96-4.81-2.93-7.47-3.76   c-3.97-10.01-6.66-21.65-2.01-31.91C702.56,178.75,716.47,166.35,731.74,159.33z"
   id="path34"
   style="fill:none;stroke:#000000;stroke-opacity:1" />
	<path
   fill="#ED3133"
   d="M474.09,185.61c10.54-8.3,21.88-15.75,34.16-21.2c4.19-0.71,8.56-0.63,12.74,0.1   c3.83,0.58,5.91,4.19,7.51,7.33c0.9,2.76,0.48,5.74,0.68,8.6c-9.72,5.91-22.59,3.33-31.64,10.57c-1.99,2.52-4.99,3.75-7.36,5.72   c-1.56,4.27,1.08,9.22-1.48,13.37c6.44,12.28,18.33,20.56,25,32.66c2.59,7.54,0.72,15.8-1.05,23.31   c-3.7,4.88-9.25,8.08-14.94,10.12c-9.85,3.41-20.47,3.54-30.77,2.98c-2.58,0.14-4.3-2.2-5.36-4.24c-2.15-4.39-1.4-9.45-1.03-14.14   c9.96-7.07,24.06-2.36,33.44-10.7c-2.51-9.05-8.57-17.53-17.55-20.99c-4.45-7.63-8.91-15.69-9.72-24.64   C466.1,197.56,468.34,189.88,474.09,185.61z"
   id="path36"
   style="fill:none;stroke:#000000;stroke-opacity:1" />
	<g
   id="g40"
   style="fill:none;stroke:#000000;stroke-opacity:1">
		<path
   fill="#ED3133"
   d="M402.05,178.6c2.4-1.45,4.25-3.85,6.99-4.71c6.82-0.91,14.13,0.54,19.56,4.94    c4.94,4.01,9.27,8.9,12.61,14.3c1.77,9.19,9.29,17.51,6.22,27.28c0.77,2.1,1.93,4.41,0.92,6.66c-1.85,4.13-5.46,7.11-7.72,11    c-12.77,2.24-25.42,6.98-38.58,5.14c-3.68,5.39-2.72,12.12-2.26,18.24c0.17,3.62,0.55,7.86-2.1,10.74    c-2.54,2.49-6.35,1.96-9.59,2.04c-4.8-7.19-3.71-16.47-6.64-24.35c-2.41-4.69-8.51-2.02-12.41-4.35    c1.34-3.45-0.29-6.74-1.26-10.02c-0.74-2.04,1.4-3.82,3.23-4.12c4.69-0.98,9.59-1.5,13.77-4.07    c-0.15-15.86,2.87-32.47,12.53-45.44C398.45,180.24,400.46,179.68,402.05,178.6z M410.53,192.98c-2.7,3.65-3.61,8.27-6.13,12.05    c2.26,6.92-4.22,13.03-2.1,19.96c3.12,0.95,6.42,1.52,9.66,0.76c6.05-1.25,12.2-1.99,18.3-2.97c5.69-0.66,7.73-9.39,2.92-12.51    c-5.05-4.25-5.65-11.33-9.42-16.45C420.81,189.7,413.76,188.68,410.53,192.98z"
   id="path38"
   style="fill:none;stroke:#000000;stroke-opacity:1" />
	</g>
	<path
   fill="#ED3133"
   d="M652.61,177.11c0.67-1.9,3.02-3.73,4.86-2c8.94,4.92,11.771,15.36,16.36,23.73   c1.71,2.58,1.08,5.75,1.24,8.66c0.23,13.3,3.1,26.92-0.54,39.99c-2.01,7.5-7.43,14.11-14.67,17.06c-3.43,1.02-7.18,0.06-10.13-1.82   c-4.64-2.92-8.07-7.3-12.06-10.98c-3.99,5.01-4.59,11.81-8.75,16.71c-3.72,4.91-8.3,10.71-15.21,10.09   c0.29-6.56,0.29-13.36,3.11-19.44c-2.19-7.71,0.38-15.47,2.37-22.88c-1.44-3.21-2.21-6.88-0.64-10.2c1.49-2.68,2.88-6.15,6.29-6.71   c2.53,4.59,8.02,4.62,12.44,5.92c7.03,2.78,8.37,11.65,14.74,15.21c2.43,1.14,6.31,1.93,7.87-0.93c3.1-5.2-0.86-12.06,3.14-17.02   c-1.69-9.28-3.07-19.51-10.18-26.43c0.17-1.61,0.34-3.21,0.51-4.81c-1.64-1.61-4.9-2.93-4.29-5.69   C650.26,182.76,651.58,180,652.61,177.11z"
   id="path42"
   style="fill:none;stroke:#000000;stroke-opacity:1" />
	<path
   fill="#ED3133"
   d="M279.73,192.2c6.53-1.16,14.33,1.62,17.52,7.72c2.5,8.48,6.2,16.52,9.37,24.76c1.3,3.22,1.72,7.48,5.38,9   c5.01-2.81,5.11-9.21,5.58-14.23c-0.06-3.62,3.02-5.97,4.55-8.96c3.31-5.95,5.71-12.51,10.37-17.61c5.51,1.2,11.9,3.22,14.45,8.75   c1.83,12.21-1.29,25.24,4.11,36.83c2.95,11.55-0.95,23.36-1.7,34.96c-0.45,2.81,0.49,6.37-2.12,8.35   c-2.61,2.61-5.95,6.29-10.04,4.8c-2.51-2.65-3.77-6.45-3.36-10.07c0.54-3.43,1.95-6.65,2.6-10.06c1.97-9.86,1.02-19.95,0.66-29.91   c-1.68-1.72-3.13-5.39-6.11-4.17c-5.37,1.75-7.16,7.63-10.37,11.69c-2.78,3.31-4.64,7.33-7.63,10.46c-3.5,3.49-9.72,2.5-12.5-1.4   c-4.37-5.93-3.66-15-10.58-19.13c0.32-4.63,1.42-9.98-2.14-13.7c-5.96,2.58-6.24,9.57-6.49,15.14c0.15,3.29-3.45,5.65-2.43,9.03   c1.07,4.6,3.67,9.81,0.02,13.98c1.17,8.2-0.73,17.32-7.2,22.95c-5.2-1.23-12.14-2.77-13.5-8.81c-0.48-15.9,4.43-31.29,5.69-47.05   c3.19-5.02-0.65-11.3,3.03-16.05C270.63,203.44,272.52,195.16,279.73,192.2z"
   id="path44"
   style="fill:none;stroke:#000000;stroke-opacity:1" />
	<path
   fill="#ED3133"
   d="M213.45,192.96c3.27-1.87,7.48-0.4,9.68,2.44c3.61,3.48,2.66,8.88,4.48,13.2   c2.42,6.66,4.87,14.27,1.19,20.98c4.31,8.21-1.26,17.1,0.48,25.68c-3.25,6.34-1.47,13.49-0.71,20.17   c0.7,5.33-0.21,11.49-4.49,15.16c-3.73,2.1-8.27,1.84-12.34,1.08c-1.4-0.06-1.91-1.4-2.32-2.51c-1.95-5.19-1.01-10.85-2-16.22   c-0.79-4.04,0.7-8.01,1.3-11.96c2.24-11.34,3.53-22.97,2.09-34.5c3.37-5.29,2.23-11.72,0.92-17.46   C210.6,203.75,209.59,197.39,213.45,192.96z"
   id="path46"
   style="fill:none;stroke:#000000;stroke-opacity:1" />
	<g
   id="g50"
   style="fill:none;stroke:#000000;stroke-opacity:1">
		<path
   fill="#ED3133"
   d="M544.58,214.13c1.88-4.17,5.93-7.38,10.43-8.17c8.99-0.09,15.29,8.43,24.29,8.4    c6.36,4.92,11.26,11.98,12.11,20.13c2.8,8.78,4.77,18.64,1.01,27.46c-2.36,6.03-8.33,9.25-13.48,12.56    c-3.13,1.75-6.1,4.53-9.97,3.98c-7.63-0.19-15.979,2.02-23-1.92c-10.01-7.64-14.5-21.07-12.2-33.33c3.23-2.1,6.13-4.95,7.27-8.74    C543.24,227.91,541.79,220.58,544.58,214.13z M556.15,231.76c-3.58,7.69-7.41,16-6.43,24.71c0.13,2.32,1.24,4.86,3.66,5.57    c4.15,1.08,8.4-0.41,12.6-0.43c2.68-0.19,6.32,0.54,7.81-2.39c1.78-3.98,0.78-9.62,5.51-11.75c1.04-5.08-0.64-10.46-3.68-14.55    C570.77,227.42,561.89,228.09,556.15,231.76z"
   id="path48"
   style="fill:none;stroke:#000000;stroke-opacity:1" />
	</g>
	<path
   fill="#ED3133"
   d="M763.71,288.1c4.74,0,9.48,0,14.23,0c0,0.87,0,2.6,0,3.46c-1.7,0-3.38,0-5.06,0.01c0,5,0,10,0,15   c-1.4-0.01-2.79-0.01-4.17-0.01c-0.01-4.99-0.01-9.99,0-14.99c-1.67,0-3.35-0.01-5-0.01C763.71,290.7,763.71,288.97,763.71,288.1z"
   id="path52"
   style="fill:none;stroke:#000000;stroke-opacity:1" />
	<path
   fill="#ED3133"
   d="M779.62,306.57c0.38-6.16,0.78-12.32,1.18-18.47c1.84,0,3.7-0.01,5.57,0c1.26,4.26,2.46,8.55,3.44,12.89   c1.08-4.34,2.32-8.64,3.72-12.89c1.82-0.01,3.65,0,5.48,0c0.3,5.68,0.59,11.35,0.99,17.02v1.45c-1.36-0.01-2.71-0.01-4.06-0.01   c-0.23-4.92-0.37-9.85-0.48-14.78c-1.4,4.83-2.84,9.66-4.36,14.45c-0.82,0-2.45,0-3.26,0c-1.4-4.79-2.62-9.63-3.67-14.51   c-0.22,4.95-0.44,9.89-0.69,14.84C782.19,306.56,780.9,306.56,779.62,306.57z"
   id="path54"
   style="fill:none;stroke:#000000;stroke-opacity:1" />
</g>
</svg>