<?xml version="1.0" encoding="UTF-8" standalone="no"?>
<!-- Created with Inkscape (http://www.inkscape.org/) -->

<svg
   xmlns:dc="http://purl.org/dc/elements/1.1/"
   xmlns:cc="http://creativecommons.org/ns#"
   xmlns:rdf="http://www.w3.org/1999/02/22-rdf-syntax-ns#"
   xmlns:svg="http://www.w3.org/2000/svg"
   xmlns="http://www.w3.org/2000/svg"
   xmlns:sodipodi="http://sodipodi.sourceforge.net/DTD/sodipodi-0.dtd"
   xmlns:inkscape="http://www.inkscape.org/namespaces/inkscape"
   width="327.37775mm"
   height="403.57776mm"
   viewBox="0 0 327.37775 403.57776"
   version="1.1"
   id="svg8"
   inkscape:version="0.92.3 (2405546, 2018-03-11)"
   sodipodi:docname="trdlo_circles.svg">
  <defs
     id="defs2" />
  <sodipodi:namedview
     id="base"
     pagecolor="#ffffff"
     bordercolor="#666666"
     borderopacity="1.0"
     inkscape:pageopacity="0.0"
     inkscape:pageshadow="2"
     inkscape:zoom="0.49497475"
     inkscape:cx="196.66474"
     inkscape:cy="982.45923"
     inkscape:document-units="mm"
     inkscape:current-layer="layer1"
     showgrid="false"
     inkscape:window-width="1920"
     inkscape:window-height="1008"
     inkscape:window-x="-8"
     inkscape:window-y="0"
     inkscape:window-maximized="1"
     fit-margin-top="0"
     fit-margin-left="0"
     fit-margin-right="0"
     fit-margin-bottom="0" />
  <metadata
     id="metadata5">
    <rdf:RDF>
      <cc:Work
         rdf:about="">
        <dc:format>image/svg+xml</dc:format>
        <dc:type
           rdf:resource="http://purl.org/dc/dcmitype/StillImage" />
        <dc:title></dc:title>
      </cc:Work>
    </rdf:RDF>
  </metadata>
  <g
     inkscape:label="Vrstva 1"
     inkscape:groupmode="layer"
     id="layer1"
     transform="translate(45.004349,68.830544)">
    <path
       style="fill:none;stroke:#00000b;stroke-width:1;stroke-linecap:butt;stroke-linejoin:miter;stroke-miterlimit:4;stroke-dasharray:none;stroke-opacity:1"
       d="m 60.828983,-31.889692 c 0,0 15.119048,-12.095239 46.113097,-12.851191 30.99404,-0.755953 44.60119,6.80357 50.64881,9.827379 6.04762,3.023812 15.11904,0 15.11904,0 0,0 9.82738,0 18.14286,6.047621 8.31548,6.047618 15.875,15.875 17.38691,22.6785698 1.58304,4.1305007 2.23394,20.9609932 -2.65781,31.7136802 -2.81893,6.19636 5.51219,-8.413464 4.17029,-24.2183871 -0.92734,-10.9222126 -11.39391,-23.5830089 -14.39091,-26.7324119 -9.42159,-9.900715 -32.95523,-10.793396 -33.049,-7.970997 -0.0753,2.264867 9.09418,9.585302 17.9824,18.10518 5.45528,5.229207 13.73868,13.3068004 18.49563,20.4422214 3.90919,8.3171976 4.52527,12.6896446 6.41361,19.9964186 0,0 9.0834,19.313104 9.83936,26.872628 0.75595,7.559524 0,26.458333 -3.02381,37.797621 -3.02381,11.33928 -11.33929,30.23809 -18.14286,37.79762 -2.23841,2.48712 -4.88595,4.5651 -7.43112,6.23395 -5.1908,3.40355 -9.95578,5.10533 -9.95578,5.10533 0,0 -19.44479,0.89604 -28.76235,4.77339 -43.84823,18.24671 -96.312561,3.87001 -91.279216,6.0959 0.304794,0.13479 30.376809,3.73227 50.092656,2.3943 16.55564,-1.12352 22.41614,0.16858 37.90081,-5.74574 7.30198,-2.78897 9.92746,16.47055 13.27106,20.52714 10.41669,12.63796 -5.83462,48.37616 -5.83462,48.37616 -3.26356,4.49089 -11.89631,10.23017 -29.43196,19.79279 -6.5817,3.58916 9.64547,5.87745 -0.0887,14.35161 0,0 -14.06335,1.24609 -14.10197,-7.10718 -0.0706,-15.26518 -5.3929,-6.09784 -17.231663,-18.22363 -10.231575,-10.47963 -25.457418,-28.39012 -28.017433,-39.61664 -1.37556,-6.0323 -11.504082,-34.24933 -4.267357,-33.38588 13.728222,1.63797 19.494198,1.94791 46.321413,1.54931 14.85547,-0.22073 32.3156,-3.39199 49.39274,-11.29686 0.95233,-0.44083 6.8159,-3.98155 0.9721,-4.91718 -0.4853,-0.0777 -1.92148,-0.15803 -4.00822,-0.29663 -0.98546,-0.0655 3.02566,-21.54563 9.47867,-34.22121 1.12543,-2.210686 9.33977,-2.593491 13.0838,-8.531096 4.11306,-6.522854 5.1041,-15.888996 1.13897,-20.144427 -1.38038,-1.481443 -11.31694,-5.180305 -18.86687,-4.622781 -9.26675,0.684302 -16.35945,5.885638 -17.03498,6.253389 -0.60693,0.330405 -2.90858,1.84954 -3.3191,4.867334 -0.41899,3.079999 1.08184,7.682115 3.352,10.275977 3.11146,3.555118 7.96578,7.78489 12.46215,9.700551 4.96866,2.116883 9.44113,1.733003 9.3268,1.722483 -2.08189,-0.19155 -8.64119,34.9784 -11.01991,34.66394 -11.69733,-1.54634 -37.33598,-6.01729 -41.13487,-13.32876 -6.19719,-11.92732 -11.759112,-36.67409 -4.69949,-54.060642 0.53738,-1.323462 1.92778,-3.791535 4.57623,-7.086244 1.97772,-2.460311 5.32579,-5.924995 5.9299,-6.781752 0.0652,-0.09252 -3.94739,5.264094 -6.99097,8.436024 -3.53155,3.680471 -6.31481,5.270522 -8.69731,5.43443 -3.265206,0.224636 -7.124226,-4.707712 -8.323848,-6.752445 -2.081604,-3.548055 -1.045197,-11.210068 1.423858,-13.866418 2.619043,-2.817713 10.25824,-4.166458 13.21025,-3.090481 2.80325,1.021756 8.28213,11.09689 10.10705,9.828473 11.37721,-7.907766 27.95778,-11.395636 33.08004,-12.945813 0,0 7.45166,-3.408377 11.28113,-2.812814 3.19086,0.670719 9.22021,7.011184 11.66241,7.422125 4.8591,0.817622 4.74284,0.139539 7.84838,-2.375637 2.27011,-1.83856 0.50775,-8.927659 0.50775,-8.927659 -0.81658,-2.962958 -2.49613,-5.129873 -3.80749,-6.295348 -1.29215,-1.148394 -5.13535,-2.646719 -8.1324,-1.481323 -3.66321,1.424436 -6.43572,5.988188 -6.38678,9.580726 0.0339,2.490749 4.03074,5.225838 9.86705,9.598439 4.87428,3.651845 11.57714,4.830839 16.07204,9.343016 9.21241,9.24783 7.81342,30.925191 9.27972,42.133035 1.96262,15.001538 -34.85961,38.987038 -35.42216,39.297178 -5.55234,3.06111 -3.13758,1.8811 -1.65033,2.26283 6.18333,1.58709 22.44716,-0.23768 22.45535,-0.23408 3.23691,1.42168 8.85036,31.50469 9.53467,34.24193 3.02381,12.09524 5.29167,26.45833 5.29167,26.45833 0,0 9.82738,9.07142 15.11905,17.38691 5.29166,8.31548 7.55952,27.97024 4.53571,37.79763 -3.02381,9.82737 -8.31547,17.38688 -15.11905,19.65476 -6.80357,2.26785 -15.875,1.51191 -15.875,1.51191 0,0 -1.5119,0.75594 -7.55952,12.85118 -6.04762,12.09524 -27.97024,18.89882 -34.01786,18.89882 -4.64139,0 -21.305,-4.45269 -28.80351,-6.52343 -2.27187,-0.62739 -5.59232,-5.57183 -5.59232,-5.57183 -0.37503,-3.6021 -3.40452,-13.97662 -2.93582,-15.85302 1.07531,-4.30486 8.3277,7.57024 15.03106,14.7191 9.95375,10.71086 30.97559,12.43678 27.98813,12.71894 -3.69178,0.34867 -11.96783,1.26739 -25.40515,-3.51339 -5.91766,-2.10541 -15.45315,-3.65409 -17.84466,-17.98484 -15.180396,-3.30549 -38.887069,-5.70536 -45.20095,-6.15263 -15.707541,-1.11271 3.474033,12.9554 20.707362,17.49579 6.975296,1.83775 19.149298,5.84336 23.249998,3.23296 0,0 -0.77702,-5.79728 1.57671,-4.83618 9.56915,3.90734 -2.38681,11.07253 -30.806559,0.17329 -15.119048,-6.04764 -23.434524,-12.85121 -26.458333,-21.92264 -3.023809,-9.07142 -6.047621,-27.21427 -3.023809,-44.60118 3.023809,-17.38691 11.339285,-74.83929 9.071427,-79.375 -2.267857,-4.53572 -18.898809,-18.89881 -18.898809,-18.89881 0,0 -14.363096,-21.92262 -16.630951,-44.601192 -2.267857,-22.67857 -3.023812,-34.773809 -3.023812,-34.773809 0,0 38.616514,-75.663533 42.567603,-83.318183 C 61.629975,-35.324199 20.416734,54.609677 15.297563,50.977943 11.006659,47.933813 2.1438824,19.976096 3.376602,14.223402 c 4.5357126,-21.1666674 8.315476,-34.017858 19.654763,-40.065476 11.339285,-6.047618 37.797618,-6.047618 37.797618,-6.047618 z"
       id="path826"
       inkscape:connector-curvature="0"
       sodipodi:nodetypes="csscscssssscccssscssssssssssssssssssssssssssssssssssssccssssssssssssscssccssscscsscsssscssccscssssc" />
  </g>
</svg>
